<svg width="55" height="55" viewBox="0 0 55 55" fill="none" xmlns="http://www.w3.org/2000/svg">
<path fill-rule="evenodd" clip-rule="evenodd" d="M3.4375 27.5C3.4375 33.8818 5.97265 40.0022 10.4852 44.5148C14.9978 49.0274 21.1182 51.5625 27.5 51.5625C33.8818 51.5625 40.0022 49.0274 44.5148 44.5148C49.0274 40.0022 51.5625 33.8818 51.5625 27.5C51.5625 21.1182 49.0274 14.9978 44.5148 10.4852C40.0022 5.97265 33.8818 3.4375 27.5 3.4375C21.1182 3.4375 14.9978 5.97265 10.4852 10.4852C5.97265 14.9978 3.4375 21.1182 3.4375 27.5ZM55 27.5C55 34.7935 52.1027 41.7882 46.9454 46.9454C41.7882 52.1027 34.7935 55 27.5 55C20.2065 55 13.2118 52.1027 8.05456 46.9454C2.89731 41.7882 0 34.7935 0 27.5C0 20.2065 2.89731 13.2118 8.05456 8.05456C13.2118 2.89731 20.2065 0 27.5 0C34.7935 0 41.7882 2.89731 46.9454 8.05456C52.1027 13.2118 55 20.2065 55 27.5ZM29.2188 15.4688C29.2188 15.0129 29.0377 14.5757 28.7153 14.2534C28.393 13.9311 27.9558 13.75 27.5 13.75C27.0442 13.75 26.607 13.9311 26.2847 14.2534C25.9623 14.5757 25.7812 15.0129 25.7812 15.4688V35.3822L18.4044 28.0019C18.0816 27.6791 17.6439 27.4978 17.1875 27.4978C16.7311 27.4978 16.2934 27.6791 15.9706 28.0019C15.6479 28.3246 15.4666 28.7623 15.4666 29.2188C15.4666 29.6752 15.6479 30.1129 15.9706 30.4356L26.2831 40.7481C26.4428 40.9082 26.6324 41.0352 26.8413 41.1218C27.0501 41.2085 27.2739 41.2531 27.5 41.2531C27.7261 41.2531 27.9499 41.2085 28.1587 41.1218C28.3675 41.0352 28.5572 40.9082 28.7169 40.7481L39.0294 30.4356C39.3521 30.1129 39.5334 29.6752 39.5334 29.2188C39.5334 28.7623 39.3521 28.3246 39.0294 28.0019C38.7066 27.6791 38.2689 27.4978 37.8125 27.4978C37.3561 27.4978 36.9184 27.6791 36.5956 28.0019L29.2188 35.3822V15.4688Z" fill="white"/>
</svg>
